<?xml version="1.0" encoding="UTF-8" standalone="no"?>
<!-- Created with Inkscape (http://www.inkscape.org/) -->

<svg
   sodipodi:docname="GL-VCA.svg"
   inkscape:version="1.1.2 (0a00cf5339, 2022-02-04)"
   id="svg8"
   version="1.1"
   viewBox="0 0 30.480002 128.50002"
   height="128.5mm"
   width="30.48mm"
   xmlns:inkscape="http://www.inkscape.org/namespaces/inkscape"
   xmlns:sodipodi="http://sodipodi.sourceforge.net/DTD/sodipodi-0.dtd"
   xmlns="http://www.w3.org/2000/svg"
   xmlns:svg="http://www.w3.org/2000/svg"
   xmlns:rdf="http://www.w3.org/1999/02/22-rdf-syntax-ns#"
   xmlns:cc="http://creativecommons.org/ns#"
   xmlns:dc="http://purl.org/dc/elements/1.1/">
  <defs
     id="defs2" />
  <sodipodi:namedview
     id="base"
     pagecolor="#ffffff"
     bordercolor="#666666"
     borderopacity="1.0"
     inkscape:pageopacity="0.0"
     inkscape:pageshadow="2"
     inkscape:zoom="2.0000001"
     inkscape:cx="1.9999999"
     inkscape:cy="249.99999"
     inkscape:document-units="mm"
     inkscape:current-layer="layer1"
     showgrid="false"
     units="mm"
     inkscape:snap-bbox="true"
     inkscape:snap-page="true"
     inkscape:bbox-nodes="false"
     inkscape:snap-bbox-edge-midpoints="false"
     inkscape:window-width="1904"
     inkscape:window-height="1064"
     inkscape:window-x="8"
     inkscape:window-y="466"
     inkscape:window-maximized="0"
     inkscape:snap-bbox-midpoints="true"
     inkscape:snap-nodes="false"
     inkscape:pagecheckerboard="0"
     width="30.48mm" />
  <metadata
     id="metadata5">
    <rdf:RDF>
      <cc:Work
         rdf:about="">
        <dc:format>image/svg+xml</dc:format>
        <dc:type
           rdf:resource="http://purl.org/dc/dcmitype/StillImage" />
      </cc:Work>
    </rdf:RDF>
  </metadata>
  <g
     inkscape:label="Layer 1"
     inkscape:groupmode="layer"
     id="layer1"
     transform="translate(0,-168.49998)">
    <rect
       style="display:inline;vector-effect:none;fill:#202020;fill-opacity:1;fill-rule:evenodd;stroke:none;stroke-width:0.649359;stroke-linecap:butt;stroke-linejoin:miter;stroke-miterlimit:4;stroke-dasharray:none;stroke-dashoffset:0;stroke-opacity:1;paint-order:normal"
       id="rect420"
       width="30.48"
       height="128.5"
       x="8.8817842e-16"
       y="168.49998" />
    <g
       aria-label="VCA"
       id="text2856"
       style="font-size:6.35px;line-height:1.25;-inkscape-font-specification:'sans-serif, Normal';fill:#ffcc00;stroke-width:0.264583"
       transform="translate(7.6113877,1.5875)">
      <path
         d="m 2.886266,179.17772 -1.7673339,-4.62918 h 0.6542236 l 1.4665771,3.89744 1.4696777,-3.89744 h 0.6511231 l -1.7642334,4.62918 z"
         id="path850" />
      <path
         d="m 9.5029162,174.90511 v 0.66043 q -0.3162598,-0.29456 -0.6759277,-0.44029 -0.3565674,-0.14572 -0.7596436,-0.14572 -0.79375,0 -1.2154296,0.48679 -0.4216797,0.48369 -0.4216797,1.40146 0,0.91468 0.4216797,1.40147 0.4216796,0.48369 1.2154296,0.48369 0.4030762,0 0.7596436,-0.14573 0.3596679,-0.14573 0.6759277,-0.44028 v 0.65422 q -0.3286621,0.22324 -0.6976318,0.33487 -0.3658692,0.11162 -0.7751465,0.11162 -1.0510986,0 -1.6557129,-0.64183 -0.6046142,-0.64492 -0.6046142,-1.75803 0,-1.11621 0.6046142,-1.75803 0.6046143,-0.64492 1.6557129,-0.64492 0.4154785,0 0.7813476,0.11162 0.3689698,0.10852 0.6914307,0.32866 z"
         id="path852" />
      <path
         d="m 12.017491,175.16556 -0.84956,2.30374 h 1.702222 z m -0.353466,-0.61702 h 0.710034 l 1.764233,4.62918 h -0.651123 l -0.42168,-1.18753 h -2.086694 l -0.42168,1.18753 H 9.8966907 Z"
         id="path854" />
    </g>
    <rect
       style="display:inline;fill:#525252;fill-opacity:1;stroke:none;stroke-width:0.119164"
       id="rect14291"
       width="11.723089"
       height="15.556728"
       x="1.7055387"
       y="101.06738"
       ry="0.96219748"
       transform="translate(0,168.49998)" />
    <g
       aria-label="OUT"
       id="text19110"
       style="display:inline;font-size:3.52778px;line-height:1.25;-inkscape-font-specification:'sans-serif, Normal';fill:#ffffff;stroke-width:0.264583"
       transform="translate(-2.5929166,-2.1166698)">
      <path
         d="m 7.6890037,282.98292 q -0.3789607,0 -0.6028921,0.2825 -0.2222088,0.28249 -0.2222088,0.76998 0,0.48575 0.2222088,0.76825 0.2239314,0.2825 0.6028921,0.2825 0.3789608,0 0.599447,-0.2825 0.2222088,-0.2825 0.2222088,-0.76825 0,-0.48749 -0.2222088,-0.76998 -0.2204862,-0.2825 -0.599447,-0.2825 z m 0,-0.2825 q 0.5408804,0 0.8647196,0.36346 0.3238391,0.36173 0.3238391,0.97152 0,0.60806 -0.3238391,0.97151 -0.3238392,0.36174 -0.8647196,0.36174 -0.5426029,0 -0.8681646,-0.36174 -0.3238392,-0.36173 -0.3238392,-0.97151 0,-0.60979 0.3238392,-0.97152 0.3255617,-0.36346 0.8681646,-0.36346 z"
         id="path25224" />
      <path
         d="m 9.3822692,282.74693 h 0.3496774 v 1.56235 q 0,0.41341 0.1498617,0.596 0.1498617,0.18087 0.4857587,0.18087 0.334175,0 0.484036,-0.18087 0.149862,-0.18259 0.149862,-0.596 v -1.56235 h 0.349677 v 1.60542 q 0,0.50298 -0.249769,0.75964 -0.248047,0.25666 -0.733806,0.25666 -0.4874812,0 -0.7372508,-0.25666 -0.248047,-0.25666 -0.248047,-0.75964 z"
         id="path25226" />
      <path
         d="M 11.647421,282.74693 H 13.823 v 0.29283 h -0.912951 v 2.27894 h -0.349677 v -2.27894 h -0.912951 z"
         id="path25228" />
    </g>
    <g
       aria-label="IN"
       id="text19110-3"
       style="font-size:3.52778px;line-height:1.25;-inkscape-font-specification:'sans-serif, Normal';display:inline;fill:#ffffff;stroke-width:0.264583"
       transform="translate(-2.5929159,-11.756376)">
      <path
         d="m 8.6665496,264.04988 h 0.3479549 v 2.57176 H 8.6665496 Z"
         id="path25231" />
      <path
         d="m 9.706969,264.04988 h 0.468533 l 1.140328,2.15146 v -2.15146 h 0.337619 v 2.57176 h -0.468533 l -1.140327,-2.15146 v 2.15146 h -0.33762 z"
         id="path25233" />
    </g>
    <rect
       style="display:inline;fill:#525252;fill-opacity:1;stroke:none;stroke-width:0.119164"
       id="rect14291-9"
       width="11.723089"
       height="15.556728"
       x="17.051371"
       y="101.06738"
       ry="0.96219748"
       transform="translate(0,168.49998)" />
    <g
       aria-label="GL"
       id="text79797-1"
       style="font-size:4.57441px;line-height:1.25;display:inline;fill:#ffcc00;stroke-width:0.11436"
       transform="translate(-15.24,164.83531)">
      <path
         d="m 30.039981,125.11736 v -0.89567 h -0.737087 v -0.37078 h 1.183807 v 1.43174 q -0.261331,0.18539 -0.576269,0.28143 -0.314937,0.0938 -0.672313,0.0938 -0.781759,0 -1.224012,-0.45565 -0.440019,-0.45789 -0.440019,-1.27315 0,-0.8175 0.440019,-1.27316 0.442253,-0.45788 1.224012,-0.45788 0.326106,0 0.618707,0.0804 0.294835,0.0804 0.542765,0.23676 v 0.48022 q -0.250163,-0.21219 -0.531597,-0.3194 -0.281433,-0.10722 -0.591904,-0.10722 -0.612006,0 -0.920242,0.34174 -0.306003,0.34175 -0.306003,1.01853 0,0.67454 0.306003,1.01628 0.308236,0.34174 0.920242,0.34174 0.238996,0 0.426618,-0.0402 0.187622,-0.0424 0.337273,-0.12955 z"
         id="path1132-9" />
      <path
         d="m 31.310899,122.25835 h 0.451187 v 2.95505 h 1.623826 v 0.37972 h -2.075013 z"
         id="path1134-6" />
    </g>
    <g
       aria-label="OUT"
       id="text19110-9"
       style="display:inline;font-size:3.52778px;line-height:1.25;-inkscape-font-specification:'sans-serif, Normal';fill:#ffffff;stroke-width:0.264583"
       transform="translate(12.75292,-2.1166592)">
      <path
         d="m 7.6890037,282.98292 q -0.3789607,0 -0.6028921,0.2825 -0.2222088,0.28249 -0.2222088,0.76998 0,0.48575 0.2222088,0.76825 0.2239314,0.2825 0.6028921,0.2825 0.3789608,0 0.599447,-0.2825 0.2222088,-0.2825 0.2222088,-0.76825 0,-0.48749 -0.2222088,-0.76998 -0.2204862,-0.2825 -0.599447,-0.2825 z m 0,-0.2825 q 0.5408804,0 0.8647196,0.36346 0.3238391,0.36173 0.3238391,0.97152 0,0.60806 -0.3238391,0.97151 -0.3238392,0.36174 -0.8647196,0.36174 -0.5426029,0 -0.8681646,-0.36174 -0.3238392,-0.36173 -0.3238392,-0.97151 0,-0.60979 0.3238392,-0.97152 0.3255617,-0.36346 0.8681646,-0.36346 z"
         id="path25224-3" />
      <path
         d="m 9.3822692,282.74693 h 0.3496774 v 1.56235 q 0,0.41341 0.1498617,0.596 0.1498617,0.18087 0.4857587,0.18087 0.334175,0 0.484036,-0.18087 0.149862,-0.18259 0.149862,-0.596 v -1.56235 h 0.349677 v 1.60542 q 0,0.50298 -0.249769,0.75964 -0.248047,0.25666 -0.733806,0.25666 -0.4874812,0 -0.7372508,-0.25666 -0.248047,-0.25666 -0.248047,-0.75964 z"
         id="path25226-3" />
      <path
         d="M 11.647421,282.74693 H 13.823 v 0.29283 h -0.912951 v 2.27894 h -0.349677 v -2.27894 h -0.912951 z"
         id="path25228-8" />
    </g>
    <g
       aria-label="IN"
       id="text19110-3-0"
       style="font-size:3.52778px;line-height:1.25;-inkscape-font-specification:'sans-serif, Normal';display:inline;fill:#ffffff;stroke-width:0.264583"
       transform="translate(12.752921,-11.756376)">
      <path
         d="m 8.6665496,264.04988 h 0.3479549 v 2.57176 H 8.6665496 Z"
         id="path25231-5" />
      <path
         d="m 9.706969,264.04988 h 0.468533 l 1.140328,2.15146 v -2.15146 h 0.337619 v 2.57176 h -0.468533 l -1.140327,-2.15146 v 2.15146 h -0.33762 z"
         id="path25233-6" />
    </g>
  </g>
  <g
     inkscape:groupmode="layer"
     id="layer2"
     inkscape:label="components"
     style="display:none">
    <circle
       r="4"
       cy="62.706257"
       cx="13.132916"
       id="circle4956-8-8-3"
       style="display:inline;vector-effect:none;fill:#ff00ff;fill-opacity:1;fill-rule:evenodd;stroke:none;stroke-width:1;stroke-linecap:butt;stroke-linejoin:miter;stroke-miterlimit:4;stroke-dasharray:none;stroke-dashoffset:0;stroke-opacity:1;paint-order:normal"
       inkscape:label="l1-1" />
    <circle
       r="4"
       cy="57.894089"
       cx="13.132916"
       id="circle4956-8-8-3-8"
       style="display:inline;vector-effect:none;fill:#ff00ff;fill-opacity:1;fill-rule:evenodd;stroke:none;stroke-width:1;stroke-linecap:butt;stroke-linejoin:miter;stroke-miterlimit:4;stroke-dasharray:none;stroke-dashoffset:0;stroke-opacity:1;paint-order:normal"
       inkscape:label="l1-2" />
    <circle
       r="4"
       cy="53.081921"
       cx="13.132916"
       id="circle4956-8-8-3-0"
       style="display:inline;vector-effect:none;fill:#ff00ff;fill-opacity:1;fill-rule:evenodd;stroke:none;stroke-width:1;stroke-linecap:butt;stroke-linejoin:miter;stroke-miterlimit:4;stroke-dasharray:none;stroke-dashoffset:0;stroke-opacity:1;paint-order:normal"
       inkscape:label="l1-3" />
    <circle
       r="4"
       cy="48.269756"
       cx="13.132916"
       id="circle4956-8-8-3-4"
       style="display:inline;vector-effect:none;fill:#ff00ff;fill-opacity:1;fill-rule:evenodd;stroke:none;stroke-width:1;stroke-linecap:butt;stroke-linejoin:miter;stroke-miterlimit:4;stroke-dasharray:none;stroke-dashoffset:0;stroke-opacity:1;paint-order:normal"
       inkscape:label="l1-4" />
    <circle
       r="4"
       cy="43.457588"
       cx="13.132916"
       id="circle4956-8-8-3-7"
       style="display:inline;vector-effect:none;fill:#ff00ff;fill-opacity:1;fill-rule:evenodd;stroke:none;stroke-width:1;stroke-linecap:butt;stroke-linejoin:miter;stroke-miterlimit:4;stroke-dasharray:none;stroke-dashoffset:0;stroke-opacity:1;paint-order:normal"
       inkscape:label="l1-5" />
    <circle
       r="4"
       cy="38.645416"
       cx="13.132916"
       id="circle4956-8-8-3-6"
       style="display:inline;vector-effect:none;fill:#ff00ff;fill-opacity:1;fill-rule:evenodd;stroke:none;stroke-width:1;stroke-linecap:butt;stroke-linejoin:miter;stroke-miterlimit:4;stroke-dasharray:none;stroke-dashoffset:0;stroke-opacity:1;paint-order:normal"
       inkscape:label="l1-6" />
    <circle
       r="4"
       cy="33.833252"
       cx="13.132916"
       id="circle4956-8-8-3-89"
       style="display:inline;vector-effect:none;fill:#ff00ff;fill-opacity:1;fill-rule:evenodd;stroke:none;stroke-width:1;stroke-linecap:butt;stroke-linejoin:miter;stroke-miterlimit:4;stroke-dasharray:none;stroke-dashoffset:0;stroke-opacity:1;paint-order:normal"
       inkscape:label="l1-7" />
    <circle
       r="4"
       cy="29.021084"
       cx="13.132916"
       id="circle4956-8-8-3-8-0"
       style="display:inline;vector-effect:none;fill:#ff00ff;fill-opacity:1;fill-rule:evenodd;stroke:none;stroke-width:1;stroke-linecap:butt;stroke-linejoin:miter;stroke-miterlimit:4;stroke-dasharray:none;stroke-dashoffset:0;stroke-opacity:1;paint-order:normal"
       inkscape:label="l1-8" />
    <circle
       r="4"
       cy="24.208918"
       cx="13.132916"
       id="circle4956-8-8-3-0-6"
       style="display:inline;vector-effect:none;fill:#ff00ff;fill-opacity:1;fill-rule:evenodd;stroke:none;stroke-width:1;stroke-linecap:butt;stroke-linejoin:miter;stroke-miterlimit:4;stroke-dasharray:none;stroke-dashoffset:0;stroke-opacity:1;paint-order:normal"
       inkscape:label="l1-9" />
    <circle
       r="4"
       cy="19.396749"
       cx="13.132916"
       id="circle4956-8-8-3-4-8"
       style="display:inline;vector-effect:none;fill:#ff00ff;fill-opacity:1;fill-rule:evenodd;stroke:none;stroke-width:1;stroke-linecap:butt;stroke-linejoin:miter;stroke-miterlimit:4;stroke-dasharray:none;stroke-dashoffset:0;stroke-opacity:1;paint-order:normal"
       inkscape:label="l1-10" />
    <circle
       r="4"
       cy="62.706257"
       cx="17.347082"
       id="circle4956-8-8-3-00"
       style="display:inline;vector-effect:none;fill:#ff00ff;fill-opacity:1;fill-rule:evenodd;stroke:none;stroke-width:1;stroke-linecap:butt;stroke-linejoin:miter;stroke-miterlimit:4;stroke-dasharray:none;stroke-dashoffset:0;stroke-opacity:1;paint-order:normal"
       inkscape:label="l2-1" />
    <circle
       r="4"
       cy="57.894085"
       cx="17.347082"
       id="circle4956-8-8-3-8-4"
       style="display:inline;vector-effect:none;fill:#ff00ff;fill-opacity:1;fill-rule:evenodd;stroke:none;stroke-width:1;stroke-linecap:butt;stroke-linejoin:miter;stroke-miterlimit:4;stroke-dasharray:none;stroke-dashoffset:0;stroke-opacity:1;paint-order:normal"
       inkscape:label="l2-2" />
    <circle
       r="4"
       cy="53.081921"
       cx="17.347082"
       id="circle4956-8-8-3-0-62"
       style="display:inline;vector-effect:none;fill:#ff00ff;fill-opacity:1;fill-rule:evenodd;stroke:none;stroke-width:1;stroke-linecap:butt;stroke-linejoin:miter;stroke-miterlimit:4;stroke-dasharray:none;stroke-dashoffset:0;stroke-opacity:1;paint-order:normal"
       inkscape:label="l2-3" />
    <circle
       r="4"
       cy="48.269756"
       cx="17.347082"
       id="circle4956-8-8-3-4-6"
       style="display:inline;vector-effect:none;fill:#ff00ff;fill-opacity:1;fill-rule:evenodd;stroke:none;stroke-width:1;stroke-linecap:butt;stroke-linejoin:miter;stroke-miterlimit:4;stroke-dasharray:none;stroke-dashoffset:0;stroke-opacity:1;paint-order:normal"
       inkscape:label="l2-4" />
    <circle
       r="4"
       cy="43.457584"
       cx="17.347082"
       id="circle4956-8-8-3-7-7"
       style="display:inline;vector-effect:none;fill:#ff00ff;fill-opacity:1;fill-rule:evenodd;stroke:none;stroke-width:1;stroke-linecap:butt;stroke-linejoin:miter;stroke-miterlimit:4;stroke-dasharray:none;stroke-dashoffset:0;stroke-opacity:1;paint-order:normal"
       inkscape:label="l2-5" />
    <circle
       r="4"
       cy="38.64542"
       cx="17.347082"
       id="circle4956-8-8-3-6-5"
       style="display:inline;vector-effect:none;fill:#ff00ff;fill-opacity:1;fill-rule:evenodd;stroke:none;stroke-width:1;stroke-linecap:butt;stroke-linejoin:miter;stroke-miterlimit:4;stroke-dasharray:none;stroke-dashoffset:0;stroke-opacity:1;paint-order:normal"
       inkscape:label="l2-6" />
    <circle
       r="4"
       cy="33.833256"
       cx="17.347082"
       id="circle4956-8-8-3-89-6"
       style="display:inline;vector-effect:none;fill:#ff00ff;fill-opacity:1;fill-rule:evenodd;stroke:none;stroke-width:1;stroke-linecap:butt;stroke-linejoin:miter;stroke-miterlimit:4;stroke-dasharray:none;stroke-dashoffset:0;stroke-opacity:1;paint-order:normal"
       inkscape:label="l2-7" />
    <circle
       r="4"
       cy="29.021084"
       cx="17.347082"
       id="circle4956-8-8-3-8-0-9"
       style="display:inline;vector-effect:none;fill:#ff00ff;fill-opacity:1;fill-rule:evenodd;stroke:none;stroke-width:1;stroke-linecap:butt;stroke-linejoin:miter;stroke-miterlimit:4;stroke-dasharray:none;stroke-dashoffset:0;stroke-opacity:1;paint-order:normal"
       inkscape:label="l2-8" />
    <circle
       r="4"
       cy="24.20892"
       cx="17.347082"
       id="circle4956-8-8-3-0-6-8"
       style="display:inline;vector-effect:none;fill:#ff00ff;fill-opacity:1;fill-rule:evenodd;stroke:none;stroke-width:1;stroke-linecap:butt;stroke-linejoin:miter;stroke-miterlimit:4;stroke-dasharray:none;stroke-dashoffset:0;stroke-opacity:1;paint-order:normal"
       inkscape:label="l2-9" />
    <circle
       r="4"
       cy="19.396755"
       cx="17.347082"
       id="circle4956-8-8-3-4-8-7"
       style="display:inline;vector-effect:none;fill:#ff00ff;fill-opacity:1;fill-rule:evenodd;stroke:none;stroke-width:1;stroke-linecap:butt;stroke-linejoin:miter;stroke-miterlimit:4;stroke-dasharray:none;stroke-dashoffset:0;stroke-opacity:1;paint-order:normal"
       inkscape:label="l2-10" />
    <circle
       r="4"
       cy="91.748917"
       cx="7.5670834"
       id="circle4956-8"
       style="display:inline;vector-effect:none;fill:#00ff00;fill-opacity:1;fill-rule:evenodd;stroke:none;stroke-width:1;stroke-linecap:butt;stroke-linejoin:miter;stroke-miterlimit:4;stroke-dasharray:none;stroke-dashoffset:0;stroke-opacity:1;paint-order:normal"
       inkscape:label="in1" />
    <circle
       r="4"
       cy="73.627174"
       cx="7.5670834"
       id="circle4956-8-8"
       style="display:inline;vector-effect:none;fill:#00ff00;fill-opacity:1;fill-rule:evenodd;stroke:none;stroke-width:1;stroke-linecap:butt;stroke-linejoin:miter;stroke-miterlimit:4;stroke-dasharray:none;stroke-dashoffset:0;stroke-opacity:1;paint-order:normal"
       inkscape:label="mod1" />
    <circle
       r="4"
       cy="41.051502"
       cx="7.5670834"
       id="circle4956-8-8-6"
       style="display:inline;vector-effect:none;fill:#ff0000;fill-opacity:1;fill-rule:evenodd;stroke:none;stroke-width:1;stroke-linecap:butt;stroke-linejoin:miter;stroke-miterlimit:4;stroke-dasharray:none;stroke-dashoffset:0;stroke-opacity:1;paint-order:normal"
       inkscape:label="amp1" />
    <circle
       r="4"
       cy="41.051502"
       cx="22.912916"
       id="circle4956-8-8-6-0"
       style="display:inline;vector-effect:none;fill:#ff0000;fill-opacity:1;fill-rule:evenodd;stroke:none;stroke-width:1;stroke-linecap:butt;stroke-linejoin:miter;stroke-miterlimit:4;stroke-dasharray:none;stroke-dashoffset:0;stroke-opacity:1;paint-order:normal"
       inkscape:label="amp2" />
    <circle
       style="display:inline;vector-effect:none;fill:#0000ff;fill-opacity:1;fill-rule:evenodd;stroke:none;stroke-width:1;stroke-linecap:butt;stroke-linejoin:miter;stroke-miterlimit:4;stroke-dasharray:none;stroke-dashoffset:0;stroke-opacity:1;paint-order:normal"
       id="circle42261-5"
       inkscape:label="out1"
       cx="7.5670834"
       cy="106.83372"
       r="4" />
    <circle
       r="4"
       cy="91.748924"
       cx="22.912916"
       id="circle4956-8-6"
       style="display:inline;vector-effect:none;fill:#00ff00;fill-opacity:1;fill-rule:evenodd;stroke:none;stroke-width:1;stroke-linecap:butt;stroke-linejoin:miter;stroke-miterlimit:4;stroke-dasharray:none;stroke-dashoffset:0;stroke-opacity:1;paint-order:normal"
       inkscape:label="in2" />
    <circle
       r="4"
       cy="73.627182"
       cx="22.912916"
       id="circle4956-8-8-4"
       style="display:inline;vector-effect:none;fill:#00ff00;fill-opacity:1;fill-rule:evenodd;stroke:none;stroke-width:1;stroke-linecap:butt;stroke-linejoin:miter;stroke-miterlimit:4;stroke-dasharray:none;stroke-dashoffset:0;stroke-opacity:1;paint-order:normal"
       inkscape:label="mod2" />
    <circle
       style="display:inline;vector-effect:none;fill:#0000ff;fill-opacity:1;fill-rule:evenodd;stroke:none;stroke-width:1;stroke-linecap:butt;stroke-linejoin:miter;stroke-miterlimit:4;stroke-dasharray:none;stroke-dashoffset:0;stroke-opacity:1;paint-order:normal"
       id="circle42261-5-2"
       inkscape:label="out2"
       cx="22.912916"
       cy="106.83372"
       r="4" />
  </g>
</svg>
